<svg width="52" height="52" viewBox="0 0 52 52" fill="none" xmlns="http://www.w3.org/2000/svg">
<path d="M45.6732 15.1666C45.2989 14.518 44.7628 13.9774 44.1172 13.5977C43.4717 13.218 42.7388 13.012 41.9899 13H14.2566L12.9999 8.10329C12.8729 7.63061 12.5897 7.21484 12.1962 6.9237C11.8028 6.63256 11.3224 6.4832 10.8333 6.49996H6.49992C5.92528 6.49996 5.37418 6.72823 4.96785 7.13456C4.56152 7.54089 4.33325 8.09199 4.33325 8.66663C4.33325 9.24126 4.56152 9.79236 4.96785 10.1987C5.37418 10.605 5.92528 10.8333 6.49992 10.8333H9.18658L15.1666 33.0633C15.2935 33.536 15.5768 33.9517 15.9702 34.2429C16.3637 34.534 16.8441 34.6834 17.3332 34.6666H36.8332C37.2334 34.6654 37.6253 34.5534 37.9657 34.3431C38.306 34.1327 38.5815 33.8323 38.7616 33.475L45.8682 19.2616C46.1763 18.616 46.3197 17.9041 46.2856 17.1896C46.2516 16.4751 46.0412 15.7801 45.6732 15.1666ZM35.4899 30.3333H18.9799L15.4482 17.3333H41.9899L35.4899 30.3333Z" fill="#FB928E"/>
<path d="M16.25 45.5C18.0449 45.5 19.5 44.0449 19.5 42.25C19.5 40.4551 18.0449 39 16.25 39C14.4551 39 13 40.4551 13 42.25C13 44.0449 14.4551 45.5 16.25 45.5Z" fill="#FB928E"/>
<path d="M37.9167 45.5C39.7117 45.5 41.1667 44.0449 41.1667 42.25C41.1667 40.4551 39.7117 39 37.9167 39C36.1218 39 34.6667 40.4551 34.6667 42.25C34.6667 44.0449 36.1218 45.5 37.9167 45.5Z" fill="#FB928E"/>
</svg>
